<svg width="179" height="185" viewBox="0 0 179 185" fill="none" xmlns="http://www.w3.org/2000/svg">
<path fill-rule="evenodd" clip-rule="evenodd" d="M134 38.5C134 38.6182 133.999 38.7363 133.998 38.8544C159.717 42.5759 179 58.0169 179 76.5C179 97.7629 153.48 115 122 115C110.197 115 99.2322 112.577 90.136 108.427C81.4023 119.004 66.2411 126 49 126C21.938 126 0 108.763 0 87.5C0 73.148 9.99475 60.6302 24.8138 54.0092C21.7185 49.2645 20 44.0178 20 38.5C20 17.2371 45.5198 0 77 0C108.48 0 134 17.2371 134 38.5ZM79 162.5C79 166.642 69.1503 170 57 170C44.8497 170 35 166.642 35 162.5C35 158.358 44.8497 155 57 155C69.1503 155 79 158.358 79 162.5ZM137 170C137 178.284 127.15 185 115 185C102.85 185 93 178.284 93 170C93 161.716 102.85 155 115 155C127.15 155 137 161.716 137 170Z" fill="white"/>
</svg>
