<svg width="57" height="65" viewBox="0 0 57 65" fill="none" xmlns="http://www.w3.org/2000/svg">
<g opacity="0.7">
<path d="M56.1508 1.07755C56.6143 0.403418 55.6759 -0.362635 55.0745 0.188925C50.9876 3.95409 42.9172 11.8215 40.7991 14.2652C37.6582 17.8887 29.6874 27.7938 25.0987 32.6238C20.5101 37.4537 1.4659 58.1641 1.4659 58.1641L7.70542 63.0592C7.70542 63.0592 28.4809 36.2472 31.863 32.6238C34.9004 29.368 48.2911 12.5722 56.1508 1.07755Z" fill="#515092"/>
<path d="M1.12132 56.5821C1.93717 55.6781 3.35056 55.3755 4.75628 55.4406C5.0244 55.1112 5.8096 55.1687 6.13517 55.2146C8.54442 55.5517 10.5821 57.1336 10.8081 59.6654C11.015 61.9713 9.70116 64.1086 7.45279 64.775C5.25421 65.4262 2.28957 64.6333 0.853218 62.7909C-0.395453 61.186 -0.246091 58.1027 1.12132 56.5859V56.5821Z" fill="#BAA4FF"/>
</g>
</svg>
