<svg width="36" height="36" viewBox="0 0 36 36" fill="none" xmlns="http://www.w3.org/2000/svg">
<mask id="path-1-outside-1_1_644" maskUnits="userSpaceOnUse" x="0" y="0" width="36" height="36" fill="black">
<rect fill="white" width="36" height="36"/>
<path fill-rule="evenodd" clip-rule="evenodd" d="M2.58579 28.0416C1.80474 28.8227 1.80474 30.089 2.58579 30.8701L4 32.2843C4.78105 33.0653 6.04738 33.0653 6.82843 32.2843L17.435 21.6777L28.305 32.5477C29.0861 33.3288 30.3524 33.3288 31.1334 32.5477L32.5476 31.1335C33.3287 30.3525 33.3287 29.0861 32.5476 28.3051L21.6776 17.4351L32.2843 6.82843C33.0653 6.04738 33.0653 4.78105 32.2843 4L30.8701 2.58579C30.089 1.80474 28.8227 1.80474 28.0416 2.58579L17.435 13.1924L7.0918 2.84924C6.31075 2.0682 5.04442 2.0682 4.26337 2.84924L2.84916 4.26346C2.06811 5.04451 2.06811 6.31084 2.84916 7.09189L13.1923 17.4351L2.58579 28.0416Z"/>
</mask>
<path fill-rule="evenodd" clip-rule="evenodd" d="M2.58579 28.0416C1.80474 28.8227 1.80474 30.089 2.58579 30.8701L4 32.2843C4.78105 33.0653 6.04738 33.0653 6.82843 32.2843L17.435 21.6777L28.305 32.5477C29.0861 33.3288 30.3524 33.3288 31.1334 32.5477L32.5476 31.1335C33.3287 30.3525 33.3287 29.0861 32.5476 28.3051L21.6776 17.4351L32.2843 6.82843C33.0653 6.04738 33.0653 4.78105 32.2843 4L30.8701 2.58579C30.089 1.80474 28.8227 1.80474 28.0416 2.58579L17.435 13.1924L7.0918 2.84924C6.31075 2.0682 5.04442 2.0682 4.26337 2.84924L2.84916 4.26346C2.06811 5.04451 2.06811 6.31084 2.84916 7.09189L13.1923 17.4351L2.58579 28.0416Z" fill="white"/>
<path d="M2.58579 30.8701L4 29.4558H4L2.58579 30.8701ZM2.58579 28.0416L4 29.4558L4 29.4558L2.58579 28.0416ZM4 32.2843L5.41421 30.8701L5.41421 30.8701L4 32.2843ZM6.82843 32.2843L5.41421 30.8701H5.41421L6.82843 32.2843ZM17.435 21.6777L18.8492 20.2635L17.435 18.8493L16.0208 20.2635L17.435 21.6777ZM28.305 32.5477L29.7192 31.1335L29.7192 31.1335L28.305 32.5477ZM32.5476 28.3051L33.9619 26.8909L32.5476 28.3051ZM21.6776 17.4351L20.2634 16.0209L18.8492 17.4351L20.2634 18.8493L21.6776 17.4351ZM32.2843 6.82843L33.6985 8.24264V8.24264L32.2843 6.82843ZM32.2843 4L30.8701 5.41421L30.8701 5.41421L32.2843 4ZM30.8701 2.58579L29.4558 4V4L30.8701 2.58579ZM28.0416 2.58579L26.6274 1.17157L26.6274 1.17157L28.0416 2.58579ZM17.435 13.1924L16.0208 14.6066L17.435 16.0209L18.8492 14.6066L17.435 13.1924ZM7.0918 2.84924L5.67759 4.26346L5.67759 4.26346L7.0918 2.84924ZM4.26337 2.84924L5.67759 4.26346L4.26337 2.84924ZM2.84916 4.26346L4.26337 5.67767L2.84916 4.26346ZM2.84916 7.09189L4.26337 5.67767L2.84916 7.09189ZM13.1923 17.4351L14.6066 18.8493L16.0208 17.4351L14.6066 16.0209L13.1923 17.4351ZM4 29.4558L4 29.4558L1.17157 26.6274C-0.390524 28.1895 -0.390525 30.7222 1.17157 32.2843L4 29.4558ZM5.41421 30.8701L4 29.4558L1.17157 32.2843L2.58579 33.6985L5.41421 30.8701ZM5.41421 30.8701L5.41421 30.8701L2.58579 33.6985C4.14788 35.2606 6.68054 35.2606 8.24264 33.6985L5.41421 30.8701ZM16.0208 20.2635L5.41421 30.8701L8.24264 33.6985L18.8492 23.0919L16.0208 20.2635ZM16.0208 23.0919L26.8908 33.9619L29.7192 31.1335L18.8492 20.2635L16.0208 23.0919ZM26.8908 33.9619C28.4529 35.524 30.9855 35.524 32.5476 33.9619L29.7192 31.1335L29.7192 31.1335L26.8908 33.9619ZM32.5476 33.9619L33.9619 32.5477L31.1334 29.7193L29.7192 31.1335L32.5476 33.9619ZM33.9619 32.5477C35.524 30.9856 35.524 28.453 33.9619 26.8909L31.1334 29.7193L33.9619 32.5477ZM33.9619 26.8909L23.0918 16.0209L20.2634 18.8493L31.1334 29.7193L33.9619 26.8909ZM30.8701 5.41421L20.2634 16.0209L23.0918 18.8493L33.6985 8.24264L30.8701 5.41421ZM30.8701 5.41421L30.8701 5.41421L33.6985 8.24264C35.2606 6.68055 35.2606 4.14788 33.6985 2.58579L30.8701 5.41421ZM29.4558 4L30.8701 5.41421L33.6985 2.58579L32.2843 1.17157L29.4558 4ZM29.4558 4L29.4558 4L32.2843 1.17157C30.7222 -0.390526 28.1895 -0.390522 26.6274 1.17157L29.4558 4ZM18.8492 14.6066L29.4558 4L26.6274 1.17157L16.0208 11.7782L18.8492 14.6066ZM18.8492 11.7782L8.50601 1.43503L5.67759 4.26346L16.0208 14.6066L18.8492 11.7782ZM8.50601 1.43503C6.94392 -0.127066 4.41126 -0.127066 2.84916 1.43503L5.67759 4.26346L5.67759 4.26346L8.50601 1.43503ZM2.84916 1.43503L1.43494 2.84924L4.26337 5.67767L5.67759 4.26346L2.84916 1.43503ZM1.43494 2.84924C-0.127152 4.41134 -0.127152 6.944 1.43494 8.5061L4.26337 5.67767V5.67767L1.43494 2.84924ZM1.43494 8.5061L11.7781 18.8493L14.6066 16.0209L4.26337 5.67767L1.43494 8.5061ZM4 29.4558L14.6066 18.8493L11.7781 16.0209L1.17157 26.6274L4 29.4558Z" fill="black" mask="url(#path-1-outside-1_1_644)"/>
</svg>
