<svg width="320" height="163" viewBox="0 0 320 163" fill="none" xmlns="http://www.w3.org/2000/svg">
<path d="M306 2H32.7728C25.5931 2 19.7728 7.82029 19.7728 15V124.324C19.7728 125.447 19.6057 126.53 19.2191 127.534C17.6493 131.611 12.9421 142.201 3.79552 150.524C3.00528 151.243 2.42919 151.995 2.16275 152.794C1.88189 153.635 1.96986 154.46 2.38563 155.199C2.77914 155.898 3.43197 156.463 4.19017 156.929C4.95696 157.4 5.90015 157.813 6.96472 158.178C11.1918 159.631 17.8735 160.524 24.8662 161.081C38.9028 162.199 54.6311 161.99 55.648 161.975C55.6959 161.975 55.7119 161.975 55.7571 161.975H55.7814H306C313.18 161.975 319 156.154 319 148.975V15C319 7.8203 313.18 2 306 2Z" fill="#BBFF2C" stroke="black" stroke-width="2"/>
<path d="M30.0555 1H301C307.075 1 312 5.92487 312 12V143.044C312 149.119 307.075 154.044 301 154.044H53.152C52.8289 154.044 52.5443 154.053 52.2181 154.076C49.5486 154.266 34.3558 155.287 21.0681 154.922C14.3984 154.738 8.31909 154.207 4.54069 153.091C3.60434 152.814 2.84319 152.511 2.2637 152.187C1.67718 151.859 1.33619 151.544 1.16201 151.271C1.00834 151.031 0.962317 150.794 1.03097 150.498C1.10835 150.163 1.3474 149.697 1.89621 149.096C10.035 140.176 15.8655 128.244 18.034 123.439C18.7347 121.887 19.0555 120.213 19.0555 118.539V12C19.0555 5.92487 23.9803 1 30.0555 1Z" fill="white" stroke="black" stroke-width="2"/>
</svg>
