<svg width="222" height="215" viewBox="0 0 222 215" fill="none" xmlns="http://www.w3.org/2000/svg">
<g opacity="0.7">
<path fill-rule="evenodd" clip-rule="evenodd" d="M216.178 88.3867C215.71 85.1042 215.078 81.8345 214.271 78.5907C209.847 60.8213 200.626 45.4093 188.322 33.1582C187.476 30.0599 186.63 26.9598 185.784 23.8616C185.485 22.7686 185.174 21.648 184.503 20.7375C183.305 19.1119 181.224 18.4631 179.316 17.7996C172.136 15.3022 165.499 11.2566 159.989 6.01849C158.439 4.54401 156.62 2.85019 154.506 3.16904C153.614 3.30359 152.82 3.79203 152.038 4.24359C149.946 5.44713 147.733 6.43871 145.446 7.20913C126.885 1.24301 106.549 0.161099 86.7851 5.08218C78.6441 7.1096 70.9473 10.1397 63.7869 14.0083C62.6865 13.848 61.5954 13.6305 60.5172 13.3374C56.4476 12.2297 52.5495 9.92034 50.3562 6.31708C47.5418 8.78683 44.7292 11.2584 41.9148 13.73C44.4546 17.0089 45.6249 21.3144 45.096 25.4264C45.013 26.0733 44.8822 26.7128 44.7181 27.3432C23.2091 46.3235 9.63466 73.959 8.18045 102.898C6.29864 105.085 4.41499 107.273 2.53318 109.461C1.63375 110.506 0.71404 111.586 0.288284 112.896C-0.283078 114.653 0.105816 116.559 0.50024 118.363C1.82912 124.447 3.15799 130.531 4.48872 136.615C4.72648 137.703 4.97714 138.821 5.60748 139.739C6.99349 141.757 9.70285 142.215 11.9975 143.066C13.0002 143.438 13.9623 143.918 14.8672 144.489C18.5405 153.92 23.5759 162.623 29.6858 170.418C29.953 172.204 30.0065 174.008 29.7558 175.8C29.1734 179.956 26.735 184.011 22.9013 185.721C22.5954 185.857 22.2489 186.016 22.153 186.337C22.0572 186.657 22.5106 187.035 22.7133 186.77L28.5965 190.557C32.2237 186.744 37.3531 184.536 42.5949 184.167C67.7477 206.618 103.262 217.14 137.469 208.625C162.142 202.482 182.947 186.576 197.111 165.945C201.822 163.298 207.189 161.809 212.595 161.731C213.556 158.874 214.829 156.124 216.387 153.546C213.519 150.761 211.25 146.496 212.918 142.863C213.493 141.612 214.472 140.6 215.299 139.5C218.764 134.899 219.522 128.402 217.207 123.127C219.739 120.811 220.709 117.253 221.147 113.849C222.27 105.109 220.36 96.1425 216.189 88.3904L216.178 88.3867Z" fill="#A079FF"/>
<path fill-rule="evenodd" clip-rule="evenodd" d="M157.466 37.766C157.4 37.5706 157.288 37.4656 157.114 37.508C156.32 37.7052 155.793 40.2468 156.206 40.8126C156.642 39.8045 157.063 38.7889 157.466 37.766Z" fill="#240057"/>
<path fill-rule="evenodd" clip-rule="evenodd" d="M145.881 53.3402C142.028 54.4221 137.957 54.8644 133.978 55.1649C129.062 55.5353 123.35 55.6256 118.971 53.0305C118.96 53.025 118.951 53.0176 118.942 53.0103C118.549 53.8176 118.328 54.975 118.711 55.2699C121.224 57.2033 124.235 58.2908 127.418 58.2815C128.922 58.2779 130.421 58.0456 131.847 57.5683C133.067 57.1591 134.794 56.3297 135.898 57.3987C136.435 57.9166 136.975 56.3021 137.054 56.0551C136.704 57.1425 137.004 56.6043 137.784 56.549C138.173 56.5214 138.574 56.5453 138.963 56.5361C139.916 56.514 140.873 56.4403 141.82 56.3279C143.908 56.0772 145.951 55.5832 147.937 54.8976C148.549 54.6857 148.944 53.0729 148.876 52.2233C147.939 52.7449 146.857 53.0674 145.879 53.342L145.881 53.3402Z" fill="#240057"/>
<path fill-rule="evenodd" clip-rule="evenodd" d="M151.051 51.3994C151.202 50.9737 151.299 50.7248 151.563 50.3101C151.751 50.0134 151.965 49.7425 152.197 49.4844C152.295 49.278 152.394 49.0716 152.492 48.8652C152.472 48.7085 152.503 48.5371 152.608 48.362C152.859 47.9418 153.098 47.516 153.334 47.0902C153.336 47.0663 153.34 47.0423 153.342 47.0184C153.366 46.6903 153.273 45.6932 152.739 46.2222C151.692 47.2561 150.892 48.5094 150.352 49.8752C150.641 50.0982 150.774 50.476 150.492 50.8594C150.308 51.11 150.096 51.3331 149.865 51.5358C149.836 51.8473 149.869 52.1385 150.039 52.3228C150.452 52.7781 150.971 51.6243 151.052 51.3994H151.051Z" fill="#240057"/>
<path fill-rule="evenodd" clip-rule="evenodd" d="M189.616 66.7874C188.526 65.3646 187.559 63.8551 186.718 62.2571C186.692 62.2073 186.663 62.1797 186.632 62.1613C187.481 63.7721 188.263 65.6171 189.617 66.7856L189.616 66.7874Z" fill="#240057"/>
<path fill-rule="evenodd" clip-rule="evenodd" d="M190.532 69.5521C189.78 69.0397 189.052 68.4758 188.364 67.8804C187.557 67.1801 187.026 66.218 186.497 65.3001C186.202 64.7877 185.911 64.2753 185.627 63.7629C185.55 64.1371 185.539 64.5315 185.701 64.8393C187.067 67.4289 188.759 69.7917 190.769 71.9187C191.088 72.256 191.689 71.2091 191.875 70.3226C191.389 70.1677 190.921 69.8175 190.533 69.554L190.532 69.5521Z" fill="#240057"/>
<path fill-rule="evenodd" clip-rule="evenodd" d="M173.16 49.2208C172.405 46.458 170.947 43.3173 168.672 41.4798C166.691 39.8781 164.207 39.9205 162.66 42.1046C161.962 43.0925 161.506 44.2334 161.232 45.4314C160.441 46.6699 159.982 48.15 159.802 49.5968C159.383 52.9328 160.778 56.0366 162.299 58.9174C162.808 59.8813 163.458 61.3503 164.325 62.4838C164.363 62.5059 164.4 62.5335 164.441 62.5538C164.769 62.7215 164.859 62.5685 164.601 62.7694C165.395 62.1483 166.509 63.1952 165.852 63.8569C166.475 64.172 167.179 64.2495 167.978 63.9343C170.368 62.9906 171.99 60.3716 172.825 58.0732C173.859 55.2275 173.958 52.1421 173.16 49.2263V49.2208ZM162.31 47.5104C162.223 47.6892 162.153 47.879 162.1 48.0781C162.061 47.6062 162.046 47.1233 162.072 46.6497C162.194 46.528 162.328 46.4138 162.47 46.3032C162.404 46.705 162.351 47.1086 162.31 47.5104ZM164.396 50.0299C164.295 49.9636 164.205 49.8714 164.127 49.7553C164.026 48.9296 164.004 47.879 164.271 47.2247C164.378 46.9648 164.717 46.5483 165.121 46.2147C164.632 47.4496 164.36 48.7268 164.396 50.0299ZM172.397 55.7528C172.152 57.6493 171.133 59.3542 169.623 60.519C168.859 61.1088 167.836 61.6617 166.864 61.2563C165.983 60.8876 165.434 59.9808 164.955 59.203C164.822 58.9892 164.678 58.7552 164.525 58.5082C164.636 58.5709 164.75 58.628 164.868 58.6796C166.146 59.2381 166.868 58.4197 167.285 57.3489C168.695 56.5987 169.502 54.9492 169.738 53.4083C169.782 53.1263 169.942 52.1956 169.421 52.2767C168.949 52.3522 168.65 53.5337 168.599 53.8728C168.599 53.8839 168.595 53.8894 168.593 53.8986C168.484 54.0147 168.405 54.1474 168.285 54.2598C168.175 54.3631 168.055 54.4497 167.933 54.5289C168.097 53.3807 168.197 52.2103 168.361 51.1026C168.409 50.7745 168.566 49.9451 168.044 49.9709C167.589 49.9931 167.264 51.274 167.222 51.5671C167.056 52.6822 166.892 53.7972 166.726 54.9141C166.7 55.0819 166.676 55.2514 166.651 55.4191C166.529 55.6698 166.435 55.9776 166.374 56.2854C166.31 56.2338 165.981 56.055 165.97 56.0495C165.583 55.8523 165.287 55.773 164.931 55.4855C164.857 55.4265 164.787 55.362 164.717 55.2975C165.093 55.2256 165.471 54.9934 165.803 54.6045C166.78 53.4544 167.126 51.7809 167.423 50.3193C167.474 50.1829 167.526 50.0502 167.572 49.9212C168.118 48.4301 168.44 46.8156 168.401 45.2231C168.398 45.0572 168.387 44.884 168.37 44.707C169.594 45.9419 170.469 47.5602 171.159 49.125C172.058 51.1671 172.689 53.506 172.399 55.7509L172.397 55.7528Z" fill="#240057"/>
<path fill-rule="evenodd" clip-rule="evenodd" d="M159.457 62.4266C158.373 60.5264 157.203 58.0917 157.057 55.7767C157.002 56.0587 156.98 56.3352 157.002 56.5564C157.26 59.1975 158.078 61.6636 159.512 63.9011C159.691 64.1813 159.954 63.8772 160.144 63.5657C159.895 63.1786 159.667 62.7934 159.457 62.4285V62.4266Z" fill="#240057"/>
<path fill-rule="evenodd" clip-rule="evenodd" d="M203.312 69.6775C203.266 69.6554 203.212 69.6443 203.148 69.6443C202.702 69.6443 202.366 70.9676 202.326 71.2404C202.047 73.0909 200.499 74.4179 198.831 75.0778C198.088 75.3726 197.757 78.0304 198.324 77.8056C201.238 76.6518 203.009 73.7986 203.465 70.776C203.489 70.6174 203.531 70.3686 203.524 70.1456C203.45 69.9908 203.38 69.836 203.312 69.6793V69.6775Z" fill="#240057"/>
<path fill-rule="evenodd" clip-rule="evenodd" d="M208.212 146.199C208.295 145.869 208.376 145.466 208.255 145.182C208.209 145.075 208.142 144.981 208.063 144.941C208.039 144.883 208.008 144.834 207.965 144.793C207.586 144.428 207.188 145.368 207.097 145.584C207.044 145.711 206.992 145.836 206.939 145.963L206.611 145.904C205.988 145.792 205.418 147.641 205.593 148.371C205.38 148.817 205.186 149.276 205.018 149.747C204.946 149.948 204.419 151.832 205.125 151.611C207.007 151.019 207.991 149.154 208.352 147.329C208.389 147.141 208.526 146.317 208.214 146.198L208.212 146.199Z" fill="#240057"/>
<path fill-rule="evenodd" clip-rule="evenodd" d="M198.3 141.335C196.301 141.205 194.553 143.118 193.291 144.425C190.283 147.536 187.994 151.261 186.057 155.111C185.052 157.109 184.134 159.149 183.237 161.197C182.352 163.213 181.462 165.263 181.218 167.472C181.067 168.849 181.13 172.148 183.32 171.774C184.341 171.599 185.408 170.528 186.151 169.869C187.151 168.984 188.042 167.994 188.867 166.945C189.232 166.483 189.535 165.589 189.426 164.999C189.332 164.489 189.111 164.339 188.744 164.804C188.019 165.725 187.223 166.577 186.346 167.353C185.67 167.952 184.396 169.33 183.395 169.004C181.237 168.302 182.945 164.529 183.48 163.281C183.898 162.306 184.322 161.329 184.757 160.358C184.759 160.624 184.825 160.848 185.012 160.937C186.401 161.602 187.75 160.189 188.679 159.324C189.883 158.205 190.998 156.996 192.034 155.723C194.227 153.026 195.974 150.011 197.331 146.817C197.357 146.756 197.397 146.601 197.434 146.406C198.088 146.843 197.674 148.293 197.465 149.018C196.796 151.345 195.626 153.456 194.139 155.358C193.776 155.822 193.471 156.712 193.58 157.304C193.674 157.813 193.897 157.966 194.262 157.499C195.364 156.091 196.297 154.556 197.056 152.94L195.313 156.759C195.101 157.221 194.658 158.187 194.944 158.69C195.215 159.167 195.56 158.79 195.744 158.386C196.861 155.94 197.978 153.493 199.095 151.047C199.979 149.108 201.002 147.088 200.951 144.896C200.914 143.32 200.075 141.452 198.295 141.335H198.3ZM187.585 157.936C187.266 158.143 186.932 158.288 186.587 158.321C187.256 156.993 188.005 155.706 188.829 154.469C188.294 155.553 187.87 156.703 187.585 157.936ZM189.934 154.691C189.909 154.842 189.892 154.985 189.885 155.109C189.881 155.173 189.879 155.247 189.881 155.323C189.682 155.531 189.481 155.736 189.276 155.938C189.468 155.511 189.689 155.094 189.934 154.689V154.691ZM198.47 149.851C198.112 150.636 197.753 151.421 197.395 152.206C197.854 151.139 198.238 150.039 198.538 148.916C198.875 147.652 199.355 146.091 199.019 144.775C199.014 144.756 199.008 144.742 199.003 144.723C200.433 146.032 199.148 148.365 198.47 149.852V149.851Z" fill="#240057"/>
<path fill-rule="evenodd" clip-rule="evenodd" d="M171.188 185.653C168.945 187.758 166.704 189.864 164.461 191.969C164.002 192.399 163.783 193.193 163.748 193.803C163.731 194.096 163.796 194.926 164.266 194.487C166.509 192.382 168.75 190.275 170.993 188.171C171.452 187.741 171.671 186.947 171.706 186.337C171.723 186.044 171.658 185.214 171.188 185.653Z" fill="#240057"/>
<path fill-rule="evenodd" clip-rule="evenodd" d="M174.893 185.537C174.436 185.929 173.977 186.32 173.52 186.713C173.054 187.111 172.836 187.959 172.807 188.547C172.79 188.864 172.843 189.641 173.324 189.23C173.782 188.838 174.24 188.447 174.698 188.054C175.164 187.656 175.381 186.808 175.411 186.22C175.427 185.903 175.374 185.126 174.893 185.537Z" fill="#240057"/>
<path fill-rule="evenodd" clip-rule="evenodd" d="M214.862 106.757C214.859 106.727 214.862 106.683 214.866 106.646C214.966 106.326 215.216 105.303 214.774 105.152C214.33 104.999 213.967 106.175 213.897 106.39C213.602 107.312 213.522 108.279 213.758 109.197C213.393 109.511 213.174 110.355 213.128 110.685C213.029 111.403 212.931 112.122 212.831 112.841C212.798 113.081 212.629 114.109 213.148 113.973C213.628 113.846 213.917 112.762 213.97 112.377C214.07 111.658 214.168 110.939 214.267 110.22C214.276 110.157 214.293 110.043 214.306 109.911C214.553 109.702 214.829 109.16 214.859 109.083C215.063 108.541 215.26 107.85 215.008 107.293C214.932 107.127 214.883 106.939 214.862 106.759V106.757Z" fill="#240057"/>
<path fill-rule="evenodd" clip-rule="evenodd" d="M208.286 107.708C207.977 108.213 207.667 108.748 207.374 109.306C207.442 108.989 207.451 108.683 207.331 108.471C207.053 107.981 206.732 108.388 206.532 108.775C205.557 110.655 204.827 112.642 204.377 114.714C204.182 115.611 204.038 116.524 203.959 117.44C203.903 118.079 203.752 119.111 204.336 119.576C205.466 120.475 206.865 118.551 207.407 117.803C208.496 116.295 209.313 114.588 209.866 112.815C210.33 111.326 210.94 109.254 210.568 107.68C210.155 105.939 208.979 106.578 208.288 107.706L208.286 107.708ZM206.941 113.643C207.348 113.254 207.608 112.719 207.755 112.154C207.65 113.112 207.433 114.048 207.103 114.955C206.97 114.518 206.922 114.08 206.941 113.643ZM205.188 116.29C205.098 115.434 205.492 114.255 205.724 113.451C205.829 113.086 205.955 112.729 206.086 112.375C205.63 113.899 205.468 115.475 205.875 116.968C205.335 117.121 205.245 116.822 205.188 116.29ZM209.267 111.068C209.13 111.853 208.9 112.622 208.588 113.357C208.88 112.065 209.038 110.742 209.066 109.389C209.351 109.562 209.364 110.51 209.267 111.068Z" fill="#240057"/>
<path fill-rule="evenodd" clip-rule="evenodd" d="M143.3 59.6675C138.899 60.7052 134.313 61.2305 129.792 61.1439C125.953 61.0701 121.62 60.6425 118.348 58.44C117.947 58.1691 117.902 57.7212 118.059 57.3747C117.725 57.0559 117.399 56.7167 117.071 56.3573C116.73 55.985 115.912 57.8595 116.308 58.2926C117.867 59.9993 119.449 61.4277 121.773 61.9309C124.213 62.4598 126.806 62.2 129.28 62.1336C132.013 62.0599 134.765 62.0728 137.493 61.8737C138.711 61.7853 139.926 61.6304 141.098 61.2766C142.393 60.8858 143.604 60.2629 144.893 59.8463C145.094 59.7818 145.259 59.4777 145.368 59.1238C144.684 59.3229 143.993 59.5017 143.302 59.6638L143.3 59.6675Z" fill="#240057"/>
<path fill-rule="evenodd" clip-rule="evenodd" d="M184.407 91.7504C183.498 91.6582 182.697 92.0452 182.072 92.6498C182.016 92.6793 181.961 92.7088 181.908 92.7401C181.655 92.6277 181.37 92.5668 181.047 92.5797C179.506 92.6424 178.728 94.5003 178.612 95.8162C178.496 97.1212 179.222 98.2749 180.54 98.3302C180.815 99.0988 181.346 99.6536 182.328 99.4914C182.503 99.4619 182.665 99.4066 182.82 99.3403C183.474 99.4564 184.166 99.3863 184.774 99.1154C186.248 98.4556 186.954 96.7046 186.956 95.1693C186.956 93.658 186.069 91.9199 184.407 91.7504ZM182.063 95.4587C182.055 95.6356 182.05 95.8125 182.042 95.9895C182 95.9489 181.957 95.9084 181.921 95.8679C181.657 95.5693 181.585 95.2854 181.639 95.0274C181.799 95.149 181.946 95.2946 182.061 95.4587H182.063ZM179.663 94.9961C179.794 94.738 180.14 94.6514 180.485 94.6514C180.337 95.0993 180.254 95.5748 180.249 96.0466C179.727 95.8734 179.396 95.5232 179.665 94.9961H179.663ZM184.636 97.2447C184.567 97.2612 184.497 97.2704 184.427 97.2815C184.645 96.6014 184.726 95.8789 184.682 95.2891C184.658 94.9703 184.595 94.4818 184.479 93.9971C184.984 94.2109 185.408 94.6053 185.684 95.1011C186.3 96.2088 185.813 96.9737 184.637 97.2447H184.636Z" fill="#240057"/>
<path fill-rule="evenodd" clip-rule="evenodd" d="M89.9129 12.0934C89.5867 12.4252 89.2457 12.744 88.8937 13.0537C89.0688 12.4307 89.0706 11.6861 88.7886 11.7856C88.5527 11.8704 88.3205 11.9607 88.0882 12.0529C88.0845 12.0529 88.0827 12.051 88.079 12.051C85.2793 12.1082 82.546 12.8012 80.1039 14.1853C78.6202 15.0258 75.5607 16.7731 76.2057 18.9664C76.4896 19.9285 77.6102 19.7589 78.3917 19.6649C79.8053 19.4953 81.2006 19.1599 82.5386 18.6715C85.272 17.6725 87.7288 16.0543 89.7655 13.9826C90.0935 13.649 90.2907 13.0721 90.3 12.6077C90.3036 12.4086 90.2576 11.7432 89.9129 12.0953V12.0934ZM78.5704 17.643C78.4599 17.6541 78.0065 17.5969 77.6212 17.6338C77.9272 17.4034 78.259 17.1749 78.3216 17.1288C79.151 16.5279 80.0468 16.0174 80.9775 15.5916C81.1619 15.5069 81.348 15.4313 81.5342 15.3539C81.2264 15.5658 80.9167 15.7778 80.6089 15.9879C80.3693 16.1519 80.1905 16.8855 80.161 17.4126C79.6358 17.514 79.105 17.5914 78.5686 17.643H78.5704Z" fill="#240057"/>
<path fill-rule="evenodd" clip-rule="evenodd" d="M84.7356 23.2608C82.4686 24.6302 80.7582 29.1772 82.9312 31.2857C83.9983 32.3215 85.729 32.2994 86.9381 31.5419C87.2901 31.3207 87.6016 31.0534 87.8781 30.753C89.5184 30.3143 90.4658 28.3791 90.2538 26.7277C90.2631 26.6374 90.2704 26.5489 90.2741 26.4623C90.416 23.4856 87.2662 21.731 84.7356 23.2626V23.2608ZM87.7435 27.1129C87.7454 27.1405 87.7472 27.1682 87.7509 27.1958C87.5942 27.2106 87.3288 27.2308 87.0911 27.2179C86.9786 27.1368 86.8423 27.017 86.728 26.9193C86.9602 26.8714 87.2164 26.8788 87.4413 26.9415C87.5297 26.9654 87.6422 27.0447 87.7454 27.111L87.7435 27.1129ZM85.1724 29.9992C83.1339 29.7264 82.2363 27.3783 83.6998 25.854C84.3928 25.1316 85.3751 24.7463 86.3557 24.7666C84.9697 25.7213 84.5679 28.6187 85.6866 29.684C85.8138 29.8056 85.9539 29.9033 86.1013 29.9826C85.8046 30.0342 85.4931 30.0434 85.1706 29.9992H85.1724Z" fill="#240057"/>
<path fill-rule="evenodd" clip-rule="evenodd" d="M52.4094 21.7568C52.3873 22.0296 52.3726 22.6636 52.6582 22.4958C53.9816 21.7162 55.3049 20.9347 56.6264 20.1533C56.9656 19.9542 57.1315 19.4861 57.2144 19.0972C55.5906 19.9487 53.9632 20.791 52.4076 21.7549L52.4094 21.7568Z" fill="#240057"/>
<path fill-rule="evenodd" clip-rule="evenodd" d="M38.9216 143.962C36.4426 138.418 32.7417 133.198 28.7421 128.644C28.1505 127.969 27.4225 127.256 26.4604 127.289C25.3932 127.328 24.6707 128.233 24.2542 129.127C23.3916 130.972 23.8045 132.938 24.4938 134.768C24.0662 133.91 23.7215 133.014 23.4709 132.078C23.2736 131.337 23.1336 130.581 23.0635 129.818C23.0248 129.407 23.0027 128.992 23.0009 128.579C23.0064 128.378 23.0101 128.178 23.0156 127.977C23.0119 128.22 23.1299 128.384 23.3732 128.467C23.5003 128.93 23.8653 128.421 23.974 128.238C24.197 127.864 24.3684 127.227 24.2505 126.79C24.009 125.905 23.1262 126.132 22.7041 126.749C22.0498 127.702 22.0535 128.996 22.0775 130.1C22.142 133.058 23.0746 135.919 24.6965 138.385C24.8624 138.637 25.3619 137.789 25.5001 137.102C28.285 142.869 32.996 147.431 37.5651 151.812C37.6148 151.88 37.6793 151.898 37.7567 151.867C39.0027 151.31 39.152 149.421 38.8516 148.262C38.3963 146.507 37.6111 144.754 36.7836 143.099C38.212 145.759 39.3713 148.549 40.0698 151.5C40.4477 153.098 40.9398 155.004 40.7057 156.659C40.4219 158.681 38.2286 158.834 36.6398 158.345C33.6503 157.426 31.2506 154.685 29.7687 152.042C29.5844 151.714 28.6979 153.428 29.0057 153.977C30.3032 156.294 32.1721 158.392 34.4945 159.722C36.4942 160.869 39.1649 161.223 40.6025 159.062C41.9019 157.109 41.7508 154.593 41.4319 152.383C41.0098 149.464 40.1251 146.649 38.9216 143.96V143.962ZM28.1302 138.471C27.3395 137.26 26.6244 135.998 26.0272 134.68C25.5536 133.637 23.9703 130.599 25.0486 129.694C26.0346 128.867 27.0778 129.634 27.8169 130.415C27.7542 130.439 27.6916 130.467 27.6289 130.502C27.1792 130.751 26.9082 131.626 26.9691 132.186C26.7645 133.119 26.8953 133.989 27.3524 134.929C27.9312 136.114 28.5818 137.27 29.2306 138.423C29.942 140.007 30.7419 141.547 31.6247 143.04C30.3641 141.594 29.1789 140.082 28.1302 138.473V138.471Z" fill="#240057"/>
<path fill-rule="evenodd" clip-rule="evenodd" d="M63.5344 167.847C63.2211 168.158 63.0921 168.883 63.1161 169.306C63.3501 173.721 64.2403 178.046 65.7904 182.186C66.0411 182.853 66.8557 181.01 66.6677 180.509C65.16 176.482 64.2735 172.289 64.0468 167.992C64.0229 167.541 63.7869 167.594 63.5363 167.845L63.5344 167.847Z" fill="#240057"/>
<path fill-rule="evenodd" clip-rule="evenodd" d="M61.166 174.926C58.8253 172.303 55.3234 169.605 51.7975 168.906C50.4797 168.645 49.0752 168.862 48.4302 170.165C47.7482 171.54 47.833 173.033 49.1453 173.958C49.4033 174.139 49.6761 174.29 49.9599 174.421C49.9655 174.519 49.9876 174.605 50.0281 174.672C51.8823 177.74 55.4266 178.914 58.7313 179.707C60.0417 180.02 61.6471 180.411 62.3751 178.948C63.1989 177.291 62.2571 176.148 61.1642 174.924L61.166 174.926ZM57.4356 174.181C57.6125 174.297 57.7876 174.421 57.959 174.55C57.7692 174.511 57.5812 174.46 57.395 174.408C57.4116 174.331 57.4264 174.255 57.4374 174.181H57.4356ZM49.1287 171.096C49.2522 171.037 49.3812 170.991 49.5158 170.963C49.9139 170.849 50.3378 170.856 50.7451 170.899C50.9128 170.917 51.0769 170.945 51.2391 170.98C51.2096 171.269 51.252 171.514 51.4178 171.61C51.4989 171.658 51.5782 171.706 51.6574 171.754C51.6279 172.027 51.6574 172.261 51.7699 172.368C52.0334 172.617 52.3081 172.852 52.5845 173.081C51.287 172.731 49.971 172.287 49.1232 171.284C48.7103 171.361 48.7122 171.299 49.1287 171.096ZM58.6465 177.477C56.9766 177.049 55.2773 176.504 53.8028 175.63C54.6009 175.859 55.3989 176.085 56.1988 176.306C57.6107 176.695 58.7921 176.878 59.5662 175.98C60.0767 176.489 60.5615 177.023 61.0149 177.582C61.1015 177.689 61.1844 177.799 61.2692 177.908C61.0997 177.936 60.9504 177.958 60.9024 177.956C60.1505 177.923 59.369 177.663 58.6446 177.477H58.6465Z" fill="#240057"/>
<path fill-rule="evenodd" clip-rule="evenodd" d="M43.7505 157.813C43.3431 157.617 42.6077 159.612 43.157 159.877C43.4998 160.043 43.8998 160.38 43.9163 160.802C43.9348 161.285 43.4427 161.523 43.0206 161.694C41.8926 162.153 40.6061 161.901 39.4689 161.617C38.9344 161.484 38.3668 163.554 38.8755 163.681C40.8881 164.181 43.2528 164.253 44.3145 162.14C44.9706 160.837 45.3484 158.579 43.7486 157.811L43.7505 157.813Z" fill="#240057"/>
<path fill-rule="evenodd" clip-rule="evenodd" d="M20.1238 121.493C18.419 122.856 18.019 125.302 18.1333 127.367C18.3028 130.45 19.1636 133.572 20.1791 136.471C20.4113 137.135 21.2334 135.301 21.0564 134.794C20.3395 132.745 19.7718 130.653 19.3903 128.515C19.1009 126.893 18.4927 124.571 19.9782 123.38C20.3874 123.052 20.6804 121.048 20.1257 121.493H20.1238Z" fill="#240057"/>
<path fill-rule="evenodd" clip-rule="evenodd" d="M13.9568 110.917C13.4684 110.62 12.98 110.322 12.4915 110.025C12.1542 109.818 11.3488 111.754 11.8981 112.089C12.3865 112.386 12.8749 112.684 13.3633 112.981C13.7006 113.188 14.506 111.252 13.9568 110.917Z" fill="#240057"/>
<path fill-rule="evenodd" clip-rule="evenodd" d="M189.064 42.687C189.415 42.7515 189.759 42.8861 190.08 43.0575C190.364 42.9561 190.699 42.9764 190.954 43.1994C190.967 43.2105 190.979 43.2234 190.994 43.2344C191.027 43.2252 191.062 43.2178 191.096 43.2123C191.029 43.1589 190.963 43.1073 190.893 43.0575C190.371 42.6815 189.697 42.5101 189.064 42.687Z" fill="#240057"/>
<path fill-rule="evenodd" clip-rule="evenodd" d="M94.4211 16.7011C94.8561 16.421 95.2948 16.1482 95.7389 15.8846C95.2247 16.104 94.7087 16.3233 94.1944 16.5426C94.2276 16.6919 94.294 16.7841 94.4211 16.7011Z" fill="#240057"/>
<path fill-rule="evenodd" clip-rule="evenodd" d="M154.63 14.7548C153.911 14.13 153.124 13.496 152.252 13.0942C151.788 12.8804 150.711 12.6979 150.564 13.402C150.52 13.6158 150.582 13.8517 150.702 14.0913C150.722 14.0452 150.745 13.9973 150.768 13.9512C151.1 13.3393 152.033 13.8849 151.701 14.4968C151.522 14.8267 152.127 15.5271 152.315 15.7593C152.505 15.9952 152.711 16.22 152.93 16.4357C153.268 16.6864 153.627 16.9094 154.007 17.0882C154.228 17.1914 154.302 17.3738 154.28 17.5545C154.856 17.9673 156.467 19.075 156.932 18.4004C157.249 17.9397 156.864 17.1766 156.596 16.8006C156.053 16.0339 155.336 15.3685 154.63 14.7548Z" fill="#240057"/>
<path fill-rule="evenodd" clip-rule="evenodd" d="M220.528 116.278C221.811 112.813 222.454 109.179 221.636 105.482C221.575 105.209 221.437 105.192 221.293 105.273C221.28 104.779 221.249 104.287 221.192 103.791C220.777 100.208 219.384 96.8835 218.088 93.5511C217.382 91.7338 216.477 89.6161 216.009 87.4892C216.105 87.1132 216.142 86.7169 216.046 86.3999C215.823 85.659 215.695 84.9199 215.727 84.1734C215.758 83.7937 215.813 83.4177 215.902 83.0491C215.97 82.7598 216.283 81.6686 215.815 81.5341C215.566 81.4622 215.347 81.7719 215.189 82.1055C214.881 79.9711 214.455 77.8626 213.904 75.7818C214.066 75.3247 214.162 74.7883 214.033 74.3921C211.965 68.0592 209.475 61.8737 206.585 55.8781C206.631 55.5666 206.615 55.292 206.495 55.1261C206.456 55.0727 206.417 55.0211 206.38 54.9695C206.38 54.7925 206.351 54.6414 206.279 54.5308C205.8 53.788 205.31 53.0526 204.812 52.3228C204.18 51.0953 203.533 49.877 202.867 48.6679C202.737 48.4301 202.534 48.5923 202.357 48.8319C200.077 45.7134 197.652 42.7073 195.09 39.8228C195.154 39.4708 195.143 39.1556 195.009 38.975C192.268 35.3349 189.225 31.9362 185.924 28.8158C185.961 28.7403 185.988 28.6813 185.999 28.6518C186.211 28.1357 186.41 27.3948 186.149 26.8621L185.894 26.3461C185.822 25.1056 185.535 23.8947 185.026 22.776C185.209 22.3226 185.286 21.7733 185.27 21.366C185.203 19.792 184.112 18.9865 182.848 18.2364C182.754 18.1811 182.658 18.1258 182.564 18.0705C182.415 17.7554 182.26 17.442 182.101 17.1305C181.954 16.8449 181.609 17.2375 181.532 17.3499C181.513 17.3775 181.495 17.407 181.476 17.4347C180.448 16.8412 179.41 16.2606 178.356 15.7169C176.773 14.8986 175.144 14.1613 173.448 13.6028C171.826 13.0683 170.138 12.7384 168.582 12.0178C163.89 9.84845 160.858 5.35312 156.528 2.64745C156.167 2.1664 155.758 1.90652 155.168 1.84201C155.061 1.72959 154.96 1.60425 154.862 1.46601C154.796 1.37202 154.698 1.39044 154.586 1.48629C154.576 1.46417 154.567 1.44021 154.556 1.41994C154.272 0.920456 153.966 1.34806 153.756 1.72405C151.616 5.55586 146.299 5.83785 142.502 5.12457C140.228 4.69697 138.029 3.9579 135.795 3.36626C133.349 2.71749 130.856 2.28804 128.351 1.95075C118.525 0.621874 108.407 -0.592731 98.4926 0.314075C92.9338 0.822772 87.4782 2.12032 82.441 4.55875C82.2106 4.66933 82.041 4.89973 81.9139 5.16513C75.2787 7.10777 68.8721 9.73418 62.7843 13.0131C57.8116 12.3514 53.3421 9.56461 50.5903 5.34207C50.4871 5.18356 50.2788 5.27019 50.1793 5.37341C48.5979 7.02483 47.0165 8.67809 45.4352 10.3295C44.2648 11.5515 43.135 12.6831 42.77 14.3991C41.9959 18.0355 45.789 21.014 44.5081 24.7591C43.4723 27.7874 40.8477 30.2295 38.6286 32.4209C35.7349 35.2796 32.9408 38.2341 30.3088 41.3379C20.4998 52.9144 13.6048 66.5423 10.2632 81.3572C8.60812 88.6946 7.87457 96.2328 8.06994 103.749C3.66308 104.934 1.19148 109.774 0.574039 114.032C-0.273789 119.874 1.59143 125.999 2.69176 131.696C3.28709 134.776 3.67414 137.996 4.52381 141.015C4.83529 142.124 5.36611 143.073 6.34664 143.719C7.41195 144.419 8.68554 144.725 9.80246 145.329C14.4932 147.867 17.0956 153.325 19.7718 157.684C23.4672 163.705 27.1645 169.727 30.8599 175.746C28.2759 179.125 25.3343 182.195 22.0665 184.934C21.5928 185.33 20.9145 187.125 21.5725 187.568C23.3198 188.742 25.0652 189.916 26.8125 191.09C27.428 191.505 28.2482 192.345 29.0574 192.023C29.743 191.75 30.2775 190.9 30.8083 190.408C33.4771 187.938 36.9772 186.462 40.5933 186.18C40.8256 186.364 41.0615 186.543 41.3085 186.714C41.6365 186.943 42.1821 185.376 42.042 184.84C42.0936 184.873 42.1452 184.905 42.1968 184.938C41.9849 185.551 41.9112 186.228 42.1729 186.44C50.2641 193.029 59.4501 198.031 68.7965 202.591C73.5112 204.893 78.259 207.193 83.2335 208.889C88.162 210.568 93.2784 211.469 98.4649 211.834C103.587 212.194 108.724 212.079 113.853 211.902C113.757 212.264 113.718 212.636 113.818 212.964C113.999 213.557 114.485 212.936 114.618 212.66C114.636 212.619 114.754 212.448 114.701 212.512C114.73 212.474 114.763 212.429 114.769 212.418C114.791 212.394 114.819 212.372 114.843 212.348C114.951 212.713 115.06 213.08 115.171 213.445C115.348 214.038 115.832 213.415 115.971 213.141C116.162 212.761 116.36 212.238 116.389 211.747C116.798 211.502 117.073 210.653 117.148 209.976C118.431 209.939 119.412 209.521 119.841 208.211C120.394 206.524 119.515 205.612 118.072 204.884C116.208 203.944 114.292 203.101 112.338 202.353C113.173 202.232 113.997 201.979 114.773 201.586C114.94 201.502 115.125 201.234 115.261 200.916C115.265 200.916 115.267 200.919 115.269 200.919L116.612 201.046C116.83 201.067 116.995 200.788 117.071 200.624C117.506 199.671 117.781 198.612 116.977 197.771C116.107 196.863 114.511 196.509 113.339 196.234C112.237 195.974 111.116 195.84 109.995 195.823C109.734 195.712 109.47 195.607 109.201 195.508C108.055 195.082 106.869 194.76 105.664 194.553C104.914 194.426 103.97 194.247 103.338 194.804C102.829 195.252 102.557 196.109 102.575 196.774C102.593 197.436 103.012 197.919 103.5 198.332C103.611 198.844 104.035 199.115 104.617 199.509C104.687 199.557 104.761 199.598 104.833 199.644C104.975 199.804 105.124 199.961 105.277 200.108C101.943 199.255 98.5423 198.665 95.1289 198.344C94.7879 198.313 94.4488 198.287 94.1078 198.26C94.6036 198.136 95.0939 197.954 95.5731 197.699C96.7048 197.1 97.6466 196.227 98.406 195.207C98.417 195.373 98.4668 195.504 98.5903 195.528C98.6124 195.532 98.6326 195.534 98.6529 195.532C98.4096 196.171 98.2806 197.681 98.8483 196.934C103.506 190.795 104.896 182.221 102.116 174.998C101.858 174.331 101.047 176.176 101.239 176.675C103.548 182.674 102.879 189.409 99.2224 194.68C99.2335 194.647 99.2427 194.62 99.2483 194.597C99.3533 194.266 99.4584 193.934 99.5634 193.602C99.7367 193.315 99.9007 193.018 100.044 192.712C100.911 190.847 101.316 188.762 101.224 186.707C101.309 186.036 101.366 185.363 101.384 184.685C101.473 181.482 100.608 178.435 98.8428 175.759C97.0218 173 94.4912 170.777 91.8242 168.86C88.9895 166.824 85.9797 165.097 82.4742 164.605C78.7511 164.083 74.969 164.686 71.2921 165.275C70.7539 165.362 70.3521 167.412 70.9124 167.321C71.5575 167.218 72.2044 167.115 72.855 167.017C70.6304 167.638 68.7578 169.059 67.827 171.673C65.6853 177.68 69.8729 184.449 73.1444 189.199C73.3895 189.555 74.2576 187.771 73.9074 187.264C72.3058 184.938 70.881 182.483 69.7254 179.904C68.826 177.897 68.0205 175.586 68.2122 173.356C68.3339 171.949 68.9237 170.932 69.7918 170.211C68.9679 172.29 69.0048 174.747 69.7586 176.813C70.3797 178.516 74.0751 186.244 76.508 182.864C76.7642 182.507 77.0223 181.85 76.9264 181.404C76.849 181.047 76.6868 180.881 76.4159 181.257C74.9064 183.354 71.7639 177.503 71.281 176.577C70.3594 174.815 69.6646 172.565 70.4829 170.755C70.0553 172.489 70.905 174.178 72.2873 175.556C72.5693 175.836 72.8568 176.111 73.1462 176.382C74.6373 178.496 76.9946 180.112 79.457 181.178C80.0726 181.578 80.6974 181.952 81.3259 182.297C82.9644 183.192 84.7504 183.88 86.599 184.151C86.7704 184.204 86.94 184.259 87.1114 184.309C88.2246 184.634 89.8539 185.295 90.9045 184.482C91.0796 184.346 91.2289 184.178 91.3561 183.988C92.4066 183.539 92.8545 182.265 92.9559 181.209C92.9946 180.798 92.9743 180.378 92.9098 179.954C93.1642 179.082 93.1771 178.098 93.0573 177.189C93.3319 177.574 93.5881 177.976 93.8203 178.391C94.0654 179.191 94.2166 180.013 94.2719 180.835C94.2166 181.056 94.1852 181.279 94.1686 181.427C94.0065 182.781 93.5825 184.073 92.9135 185.264C92.2647 186.418 91.2713 187.903 90.0567 188.519C88.1988 189.463 86.2746 187.36 84.3136 187.771C83.8417 187.87 83.4105 189.426 83.7422 189.761C85.0858 191.121 86.8165 191.8 88.6615 192.188C89.0817 192.277 89.5351 192.38 90.0051 192.474C90.0585 192.542 90.1157 192.609 90.182 192.662C91.3045 193.578 93.6065 193.927 94.9796 193.67C95.3446 193.602 95.6745 193.481 95.9712 193.313C95.9712 193.381 95.9767 193.449 95.9896 193.512C96.0671 193.869 96.2292 194.033 96.5002 193.659C96.9702 193.01 97.3867 192.327 97.7517 191.619C98.581 190.944 98.8944 189.809 98.9349 188.628C99.1155 187.984 99.2556 187.332 99.3551 186.67C99.4141 187.111 99.4584 187.553 99.486 187.999C99.5081 188.346 99.6169 188.401 99.7477 188.318C99.7717 188.594 99.7901 188.871 99.7938 189.151C99.8012 189.656 99.7477 190.159 99.6445 190.651C99.5689 190.941 99.4879 191.23 99.4068 191.518C99.204 192.113 98.9312 192.682 98.5884 193.21C97.4457 194.642 95.7832 195.674 93.7669 196.066C92.6905 196.275 91.6031 196.267 90.558 196.044C89.7378 195.816 88.9342 195.488 88.1694 195.108C87.762 194.905 87.0598 196.864 87.5759 197.172C88.2763 197.589 89.0024 197.88 89.7378 198.061C89.5203 198.059 89.3047 198.053 89.0872 198.053C87.7676 198.053 86.0129 197.889 85.1024 199.06C84.9089 199.307 84.7615 199.548 84.6472 199.784C84.5919 199.78 84.5348 199.778 84.4795 199.775C83.7514 199.659 83.0179 199.59 82.3341 199.666C82.2106 199.66 82.0871 199.655 81.9618 199.649C80.7343 199.601 79.4902 199.585 78.7548 200.726C78.4931 201.131 78.106 202.027 78.4193 202.497C79.8901 204.696 82.605 205.282 85.0305 205.811C88.1638 206.493 91.3358 206.985 94.5281 207.289C97.759 207.997 101.018 208.572 104.3 209.003C105.12 209.112 105.946 209.213 106.774 209.311C99.8565 209.316 92.9504 208.826 86.282 206.854C81.2338 205.361 76.4398 203.142 71.7068 200.864C68.5182 199.331 65.3462 197.76 62.2185 196.107C62.6774 196.042 63.1161 195.88 63.5252 195.6C63.5695 195.62 63.6155 195.641 63.6598 195.661C63.586 196.081 63.6155 196.455 63.8183 196.496L67.2962 197.167C68.1109 197.323 69.1098 197.672 69.8563 197.146C69.906 197.111 69.9521 197.073 69.9964 197.034C70.0406 197.052 70.0848 197.071 70.1291 197.089C70.7115 197.32 70.9511 195.419 70.8092 195.095C70.8276 194.666 70.7649 194.245 70.6212 193.897C70.1549 192.765 68.9827 191.827 67.8915 191.022C65.2872 188.395 61.8498 186.469 58.7958 184.562C53.602 181.32 48.3067 178.245 42.9267 175.324C36.5662 169.754 30.5152 163.836 24.8053 157.593C24.5141 157.276 23.963 158.473 23.9556 159.164C23.7455 158.9 23.5354 158.637 23.3271 158.371C22.9843 157.616 22.6507 156.856 22.3319 156.089L19.7607 148.94C19.5156 148.258 18.736 150.131 18.8834 150.617C19.0972 151.314 19.3202 152.007 19.5506 152.696C18.8705 151.548 18.2052 150.387 17.5674 149.215C17.5619 149.178 17.5564 149.141 17.5472 149.106L12.4823 130.29C12.3699 129.871 12.0695 130.256 11.9405 130.422C11.664 130.776 11.581 131.355 11.5792 131.786C11.5792 131.858 11.581 131.932 11.581 132.004C11.5387 132.094 11.4981 132.188 11.4612 132.282C11.4539 132.26 11.4465 132.236 11.4391 132.214C11.1958 131.475 10.4862 133.371 10.536 133.709C10.5452 133.769 10.5544 133.828 10.5637 133.889L10.5673 133.902C11.1534 137.804 12.3257 141.505 13.8518 145.068C12.5763 143.796 11.1184 142.738 9.44489 142.032C8.92698 141.813 8.37589 141.619 7.85982 141.37C7.99069 141.275 8.12707 141.087 8.175 141.007C8.41644 140.604 8.53624 140.023 8.45146 139.559L7.44697 134.092C7.66814 133.698 7.86904 133.054 7.8801 132.94C8.24503 129.14 7.36034 125.453 6.36323 121.811C5.3016 117.934 4.03723 113.892 4.67679 109.831C4.90533 108.383 3.96166 109.3 3.82343 110.18C3.29999 113.503 3.76814 116.739 4.54777 119.955C4.42797 120.057 4.31369 120.217 4.26946 120.289C4.02801 120.693 3.90821 121.273 3.99299 121.738L7.57046 141.217C7.15023 140.989 6.76134 140.714 6.44616 140.342C5.52646 139.251 5.42509 137.564 5.16521 136.217C4.08146 130.61 2.81341 125.006 1.95452 119.36C1.52324 116.533 1.22281 113.318 2.55722 110.679C3.43085 108.95 4.84267 107.57 6.57518 106.821C6.66734 109.182 6.75949 111.542 6.85349 113.903C6.79451 114.159 6.77055 114.422 6.78161 114.621C6.90325 116.885 7.02674 119.15 7.14839 121.413C7.17235 121.865 7.40826 121.811 7.65893 121.561C7.97594 121.246 8.0939 120.529 8.07731 120.101C8.05888 119.635 8.04045 119.167 8.02202 118.7C8.31139 118.767 8.84773 117.467 8.79796 117.069C8.75189 116.708 8.70765 116.347 8.66342 115.985C8.64314 115.797 8.62103 115.609 8.6026 115.423C8.59707 112.113 8.77769 108.808 9.13157 105.52C9.32141 104.984 9.39329 104.315 9.38038 104.04C9.37301 103.88 9.36748 103.72 9.36011 103.561C9.36748 103.498 9.37486 103.436 9.38223 103.373C9.4025 103.211 9.39882 103.026 9.33246 102.912C8.85141 89.1866 11.6787 75.3837 17.6209 62.9906C20.8132 56.3315 24.8772 50.1645 29.5863 44.4804C30.8525 42.9524 32.1611 41.4632 33.5066 40.0053C32.6846 41.148 31.9215 42.3405 31.2267 43.5772C30.9299 44.1044 30.8783 45.9935 31.5511 44.7974C33.1896 41.8853 35.2428 39.2423 37.6167 36.9273C36.944 37.8268 36.3173 38.7188 35.7146 39.5003C34.2531 41.3913 32.692 43.2418 31.3096 45.1918C30.6056 46.0249 29.9144 46.8727 29.2454 47.7371C29.085 47.9436 28.4786 49.4973 28.9947 49.5728C29.3725 49.6281 29.7356 49.6208 30.084 49.5655C30.1356 49.7166 30.2001 49.8677 30.283 50.0134C30.3531 50.135 30.5245 50.065 30.5908 49.9894C30.8304 49.7148 31.0719 49.4402 31.3115 49.1655C31.3428 49.1508 31.3741 49.136 31.4036 49.1195C31.4036 49.1803 31.4036 49.2429 31.4092 49.3056C31.4239 49.4936 31.4644 49.6982 31.5345 49.8935C31.7575 49.7203 31.9805 49.5507 32.2054 49.3793C33.9029 48.0928 35.6667 46.8985 37.4619 45.7539C41.5223 40.9324 45.1532 35.7367 47.0589 29.6618C47.0792 29.5936 47.3188 28.3182 46.8875 28.5357C44.8343 29.5715 42.8972 30.7916 41.091 32.1758C42.1121 31.0386 43.0631 29.8443 43.863 28.532C45.5992 25.6789 46.6092 22.1825 45.6748 18.8815C45.3688 17.8033 44.8785 16.7896 44.4491 15.7574C44.3293 15.4699 43.8667 14.6718 43.933 14.3235C44.0031 13.9567 44.6574 13.4499 44.908 13.1881C46.5152 11.5091 48.1224 9.83002 49.7296 8.1528C52.3542 12.0399 56.468 14.74 61.0499 15.6118C61.0536 15.9786 61.12 16.3693 61.4001 16.2145C61.6618 16.0708 61.9254 15.9289 62.1871 15.7869C62.3567 15.8072 62.5244 15.833 62.694 15.8478C62.9741 15.8736 63.2248 15.5602 63.4109 15.1363C69.3752 12.0252 75.6344 9.52774 82.1111 7.68464C82.3396 7.62013 82.5387 7.31603 82.6843 6.93266C92.0362 2.65298 102.481 2.35071 112.596 3.10638C112.71 3.1156 112.825 3.12482 112.939 3.13403C111.861 3.32019 110.777 3.56717 109.689 3.87865C107.362 4.11088 105.034 4.3468 102.71 4.61036C100.863 4.82047 99.0068 5.08773 97.2374 5.67568C96.8356 5.80838 96.4504 5.97794 96.0652 6.15119C96.3767 5.31626 96.6421 4.11457 96.0505 4.26754C94.5704 4.6546 93.0904 5.04163 91.6104 5.42869C91.4667 5.46555 91.3432 5.57061 91.2381 5.71069C91.0538 5.801 90.8713 5.90237 90.6926 6.0148C90.311 6.25625 89.2365 8.63754 90.0438 8.7555C90.4013 8.8071 90.7571 8.82922 91.1073 8.82553C91.2031 8.96561 91.3155 9.08541 91.439 9.18862C91.4574 9.17203 91.4759 9.15544 91.4962 9.13885C92.2444 8.5638 93.0333 8.09012 93.8535 7.70491C95.8311 6.68383 98.0355 5.97241 100.078 5.43422C102.85 4.70435 107.065 3.81966 109.356 6.14566C109.566 6.35946 109.662 6.72438 109.551 7.01375C111.081 7.1483 112.609 7.30497 114.133 7.4819C114.131 7.55379 114.133 7.62382 114.139 7.69018C112.841 7.87817 111.549 8.10672 110.268 8.38503C110.303 7.939 110.242 7.59618 110.067 7.60356C109.752 7.61646 109.439 7.6312 109.124 7.6441C107.61 9.62175 105.507 11.0833 103.34 12.3053C107.566 10.7737 112.01 9.83923 116.5 9.40978C116.494 9.38398 116.487 9.36004 116.483 9.33423C115.96 8.70205 115.785 7.88002 116.29 7.12251C116.312 6.6986 116.631 6.27467 117.101 6.32443C117.113 6.32443 117.128 6.32628 117.141 6.32812C118.566 5.43422 120.752 5.47661 122.285 5.52822C124.514 5.60194 126.97 5.89683 128.983 6.92344C129.32 7.09669 129.628 7.32156 129.882 7.57775C130.364 7.8192 130.815 8.1012 131.213 8.43849C131.598 8.76472 131.503 9.51484 131.047 9.73233C131.023 9.74338 130.999 9.75261 130.975 9.76367C130.935 9.86135 130.876 9.95167 130.798 10.0199C130.493 10.2853 130.159 10.5046 129.803 10.6852C130.028 10.7755 130.251 10.8658 130.476 10.9525C130.596 10.9985 130.727 10.934 130.852 10.7976C132.455 11.3616 134.059 11.9293 135.661 12.4952C133.867 12.2666 132.076 12.0381 130.282 11.8114C129.184 11.6731 128.082 11.5404 126.978 11.4169C125.809 11.581 124.589 11.5662 123.546 11.5367C122.652 11.5109 121.402 11.5073 120.284 11.2695C119.465 11.2289 118.658 11.1073 117.947 10.8253C117.174 10.8235 116.402 10.8327 115.63 10.864C107.743 11.181 97.0697 13.8609 94.6128 22.5364C93.4406 26.676 94.4783 30.9852 96.4688 34.6898C96.6624 35.0492 97.0789 34.1958 97.1195 34.0963C97.2724 33.7222 97.4402 33.1416 97.2319 32.7545C95.5823 29.6821 94.2295 25.6143 95.5215 22.1751C96.8577 18.6198 100.682 16.4191 104.075 15.0792C99.0381 19.7699 97.5655 27.5183 99.3736 33.9839C101.847 42.8308 109.218 48.7601 116.153 54.1714C116.918 54.7686 118.133 51.4971 117.425 50.946C116.913 50.546 116.4 50.1461 115.886 49.7406C116.229 48.9665 116.42 47.9657 116.078 47.6376C113.691 45.3392 111.252 43.0833 108.93 40.7204C106.809 38.5621 104.844 36.1919 103.716 33.3517C102.912 31.3298 102.472 29.1642 102.439 27.0059C102.575 27.6031 102.763 28.1892 102.999 28.7569C103.122 30.4304 103.758 32.0265 104.807 33.5858C106.851 36.6232 109.454 39.351 111.794 42.1617C112.205 42.6557 113.322 40.1933 112.812 39.5814C111.396 37.882 109.968 36.1919 108.556 34.4889C112.281 36.2859 116.92 36.3504 120.919 35.5855C124.136 34.9699 127.604 34.0834 130.266 32.091C132.69 30.2737 134.14 27.2437 134.219 24.2283C134.236 23.5703 134.16 22.9732 134.007 22.4258C134.741 23.915 135.058 25.5904 134.726 27.2234C134.663 27.4685 134.601 27.7118 134.538 27.9569C134.452 28.2924 134.098 29.5678 134.64 29.7245C135.174 29.8775 135.572 28.5559 135.662 28.2795C135.839 27.7413 135.981 27.1921 136.085 26.6354L136.451 25.2126C136.63 25.6475 136.787 26.0954 136.916 26.5525C137.117 27.2602 137.684 26.4972 137.85 26.1968C138.182 25.5978 138.475 24.6338 138.28 23.9427C138.246 23.8247 138.21 23.7086 138.173 23.5925C138.313 21.9576 137.961 20.5827 137.283 19.4123C142.819 22.4958 147.248 27.4703 149.528 33.4402C149.782 34.1037 150.269 33.4328 150.463 33.0845C150.767 32.5352 151.135 31.4699 150.892 30.8303C149.03 25.9516 145.842 21.6978 141.774 18.5461C142.161 18.6917 142.546 18.8446 142.926 19.0105C149.585 21.9171 154.519 28.0952 156.003 35.1893C156.169 35.98 156.847 35.0916 157.004 34.8096C157.382 34.1276 157.627 33.1729 157.463 32.3933C157.418 32.1813 157.37 31.9694 157.321 31.7593H157.323C157.406 31.8846 157.551 31.8993 157.765 31.7814C158.161 31.5639 158.371 30.6847 158.432 30.2903C158.627 29.0241 158.502 27.8648 158.172 26.7681C157.877 25.2623 157.38 23.8081 156.701 22.4461C159.921 23.9353 163.139 25.4245 166.359 26.9156C166.503 27.0022 166.645 27.0907 166.787 27.1828C166.724 27.6289 166.743 28.038 166.87 28.215C167.806 29.5107 169.12 30.3511 170.698 30.6294C170.812 30.6497 170.923 30.611 171.024 30.5318C170.987 30.635 170.956 30.7382 170.928 30.8414C170.547 31.1086 170.254 31.527 170.042 32.0265C169.94 31.3833 169.354 32.1334 169.242 32.3343C168.923 32.902 168.777 33.6226 168.873 34.2659C169.561 38.7981 171.671 42.945 174.838 46.1668C174.845 46.3493 174.886 46.5207 174.974 46.6589C176.92 49.7092 178.865 52.7596 180.811 55.8117C181.816 58.3276 182.964 60.7808 184.261 63.162C184.455 63.5159 184.809 62.9833 185 62.6312C184.143 61.0167 183.364 59.3726 182.739 57.6272C181.775 54.9326 180.97 52.0629 179.165 49.7811C178.935 49.4899 178.931 49.1545 179.053 48.8798C178.883 48.6144 178.715 48.3509 178.546 48.0855C179.012 48.2643 179.508 48.3582 180.043 48.3066C181.725 48.1481 182.58 46.6755 182.879 45.1476C183.211 43.4593 182.822 41.6715 182.055 40.0201C183.5 41.1757 185.067 42.2189 186.538 43.3174C186.794 42.0088 187.92 40.9526 189.593 40.9766C192.753 41.019 194.658 44.849 195.602 47.3832C196.186 48.9517 196.691 51.4344 195.768 52.8683C196.011 53.224 196.249 53.5834 196.477 53.9484C198.826 57.6972 200.401 62.0193 200.577 66.4649C200.61 67.2906 200.853 69.1632 200.311 69.8599C199.878 70.4165 198.864 70.3981 198.262 70.352C196.671 70.2285 195.143 69.6903 193.552 70.0442C193.547 70.0405 193.543 70.0368 193.538 70.0331C193.466 69.9815 193.368 70.0313 193.259 70.1474C193.022 70.3188 192.826 70.7409 192.703 71.1998C192.504 71.7822 192.419 72.4218 192.673 72.7149C192.697 72.748 192.723 72.7738 192.754 72.7904C193.746 73.5129 194.832 74.0585 196.002 74.4234C196.374 74.5395 196.769 73.7802 196.951 73.0356C198.389 73.2088 199.736 73.1277 200.665 71.6864C201.594 70.2451 201.745 68.3633 201.811 66.6953C201.883 64.8964 201.751 63.1049 201.435 61.3337C200.663 57.0024 198.781 53.0655 196.247 49.56C196.258 49.571 196.267 49.5839 196.278 49.595C196.315 49.6374 196.356 49.6558 196.4 49.6576C199.178 53.6682 201.668 57.865 203.85 62.2202C203.87 62.2165 203.889 62.2092 203.911 62.2055C204.176 61.6986 204.536 61.2544 205.035 60.989C206.373 60.2794 207.615 61.4166 208.358 62.4322C209 63.3077 210.122 65.2927 210.797 67.3238C211.198 68.1476 211.499 68.9051 211.668 69.3807C212.404 71.4431 213.202 74.6667 212.479 77.1051C212.619 77.5954 212.75 78.0875 212.877 78.5796C212.866 78.6017 212.855 78.6257 212.844 78.6478C212.636 78.41 212.247 78.9335 212.131 79.1418C211.84 79.6726 211.611 80.4651 211.762 81.0752L212.739 84.9973C212.892 85.6147 213.406 84.9383 213.539 84.6932C213.552 84.6711 213.563 84.6434 213.576 84.6213C213.733 84.4849 213.882 84.2822 213.933 84.19C213.948 84.1624 213.961 84.1347 213.976 84.1052C214.011 84.3504 214.048 84.5955 214.079 84.8425C214.131 85.2498 214.284 85.3696 214.499 85.2553C214.448 86.0718 214.49 86.8902 214.647 87.7048C215.19 92.8858 218.088 97.7534 219.411 102.816C219.693 103.895 219.855 104.949 219.925 105.99C219.802 106.259 219.713 106.493 219.702 106.554C219.474 107.872 219.149 109.155 218.737 110.406C219.065 108.152 219.192 105.876 218.973 103.576C218.947 103.31 218.888 103.174 218.807 103.128C218.779 102.949 218.75 102.772 218.716 102.593C218.611 102.026 218.132 102.56 217.994 102.77C217.66 103.275 217.489 103.987 217.513 104.588C217.526 104.925 217.531 105.262 217.535 105.599C216.577 109.317 215.745 113.064 215.045 116.837C214.925 116.724 214.798 116.618 214.662 116.52C213.069 115.361 212.199 116.603 211.547 118.064C209.958 121.627 208.964 125.431 208.268 129.261C207.912 131.213 207.639 133.178 207.387 135.146C207.171 136.84 206.635 138.847 206.974 140.55C207.258 141.973 208.463 142.591 209.722 141.811C209.897 141.702 210.061 141.582 210.216 141.452C210.212 141.931 210.306 142.279 210.642 141.929C211.536 140.991 212.306 139.981 212.973 138.915C213.014 138.993 213.082 139.028 213.176 139.02C212.933 139.485 212.763 140.021 212.78 140.536C212.787 140.777 212.911 141.52 213.299 141.068C213.353 141.005 213.406 140.941 213.458 140.876V140.88C213.458 140.88 213.463 140.871 213.465 140.867C213.476 140.854 213.487 140.84 213.5 140.827C213.504 140.838 213.51 140.847 213.515 140.858C212.61 143.037 211.96 145.307 211.993 147.687C212.031 150.374 213.143 153.166 215.471 154.571C214.241 156.779 213.089 159.029 212.017 161.318C209.329 160.144 206.333 159.978 203.557 160.693C204.185 159.566 204.663 158.356 204.969 157.074C205.037 156.784 205.35 155.693 204.882 155.559C204.742 155.518 204.609 155.603 204.491 155.745C204.386 155.35 204.097 155.234 203.708 155.92C203.586 156.134 203.461 156.346 203.336 156.558C203.279 156.567 203.21 156.607 203.133 156.694C203.107 156.723 203.083 156.751 203.057 156.781C202.936 156.77 202.809 156.862 202.685 157.057C202.556 157.262 202.423 157.463 202.292 157.665C201.555 158.535 200.847 159.425 200.169 160.34C200.615 159.556 201.054 158.769 201.483 157.977C201.564 157.879 201.638 157.757 201.701 157.636L202.919 155.258C203.148 154.812 203.564 153.817 203.288 153.325C203.009 152.835 202.687 153.24 202.488 153.629C195.877 166.514 187.199 178.262 176.839 188.382C176.386 188.825 176.161 189.597 176.126 190.216C176.122 190.27 176.122 190.342 176.128 190.423C171.795 194.594 165.677 197.038 160.347 199.471C160.616 199.155 160.802 198.733 160.928 198.363C160.998 198.153 161.2 197.323 160.863 197.228C160.653 197.167 160.478 197.46 160.358 197.738C160.316 197.766 160.303 197.784 160.225 197.817C160.076 197.884 159.943 197.898 159.783 197.871C159.424 197.81 159.191 198.556 159.125 198.8C159.059 199.045 159.003 199.305 159.022 199.559C159.029 199.668 159.05 199.911 159.191 199.935C159.232 199.942 159.271 199.944 159.311 199.948C155.242 201.819 151.181 203.713 147.09 205.534C145.083 206.428 143.053 207.291 140.993 208.063C141.511 207.788 142.006 207.46 142.48 207.079C142.887 206.749 143.179 204.746 142.628 205.192C141.442 206.148 140.077 206.734 138.622 206.939C138.866 206.331 139.019 205.534 138.696 205.547C138.451 205.556 138.215 205.586 137.983 205.621C137.952 205.479 137.891 205.4 137.793 205.439C137.719 205.468 137.647 205.494 137.574 205.521C137.563 205.516 137.552 205.51 137.539 205.505C137.461 205.461 137.365 205.52 137.264 205.639C133.489 207.051 129.492 207.534 125.479 207.044C124.884 206.972 124.425 209.053 124.886 209.108C126.987 209.364 129.09 209.359 131.16 209.099C130.758 209.298 130.347 209.475 129.916 209.613C126.672 210.655 123.061 209.414 119.959 210.977C119.141 210.878 118.326 210.758 117.513 210.61C116.756 210.472 116.074 213.246 116.723 213.362C121.386 214.206 126.167 214.267 130.845 213.486C135.865 212.645 140.655 210.846 145.306 208.822C149.97 206.791 154.575 204.613 159.199 202.491C163.119 200.694 167.119 198.988 170.805 196.73C174.552 194.435 177.82 191.551 179.969 187.675C180.015 187.592 180.066 187.489 180.118 187.371C185.852 181.346 191.026 174.81 195.578 167.858C195.578 167.863 195.578 167.869 195.578 167.872C195.585 168.118 195.705 168.853 196.098 168.405C196.865 167.53 197.609 166.634 198.333 165.727C198.37 165.698 198.405 165.668 198.442 165.64C198.499 165.631 198.568 165.592 198.647 165.508C198.663 165.489 198.68 165.471 198.697 165.452C202.348 162.778 207.344 162.251 211.508 164.199C211.755 164.313 212.055 163.777 212.12 163.637C213.567 160.493 215.161 157.424 216.901 154.432C217.105 154.08 217.695 152.497 217.08 152.243C214.805 151.303 213.473 149.005 213.261 146.607C213.012 143.805 214.49 141.149 215.718 138.735C215.867 138.444 216.095 137.916 216.16 137.45C216.271 137.229 216.383 137.01 216.488 136.787C217.504 135.614 218.23 134.162 218.689 132.677C219.719 129.337 219.284 125.87 218.53 122.525C218.491 122.35 218.42 122.28 218.339 122.272C218.571 121.824 218.759 121.364 218.923 120.982C219.572 119.461 220.102 117.884 220.523 116.284L220.528 116.278ZM115.307 199.148C115.344 199.165 115.379 199.181 115.414 199.198C115.355 199.299 115.304 199.413 115.257 199.539C115.254 199.537 115.252 199.533 115.25 199.531C115.239 199.524 115.228 199.518 115.219 199.511C115.233 199.349 115.224 199.205 115.186 199.096C115.226 199.115 115.268 199.128 115.309 199.146L115.307 199.148ZM71.563 171.874C71.3455 171.505 71.1981 171.109 71.3179 170.786C71.3787 170.624 71.5372 170.473 71.7233 170.338C71.6128 170.843 71.5575 171.361 71.563 171.874ZM75.3395 169.236C75.6362 169.225 75.933 169.227 76.2297 169.242C76.0731 169.34 75.9219 169.446 75.7726 169.557C75.6307 169.446 75.487 169.34 75.3395 169.236ZM76.0767 176.01C76.0915 175.951 76.1062 175.89 76.121 175.831C76.2666 176.034 76.4159 176.235 76.5689 176.432C76.403 176.294 76.2389 176.152 76.0767 176.01ZM85.0693 180.404C84.7338 180.31 84.4002 180.186 84.074 180.044C84.1182 179.958 84.1606 179.869 84.1975 179.779C84.2638 179.748 84.3265 179.713 84.3873 179.672C84.5421 179.749 84.6988 179.827 84.8573 179.897C85.1872 180.042 85.5282 180.168 85.8692 180.26C85.7899 180.466 85.5595 180.54 85.0693 180.404ZM86.8091 180.697C86.8257 180.603 86.8405 180.509 86.8534 180.413C87.2496 180.418 87.6238 180.343 87.9556 180.159C88.584 180.181 89.1849 179.993 89.6383 179.46C89.7047 179.381 89.7673 179.301 89.8263 179.222C90.0051 179.628 90.1728 180.037 90.3221 180.455C89.2089 180.715 87.9924 180.763 86.8091 180.699V180.697ZM92.0067 189.077C91.6915 189.551 91.345 190.008 90.9672 190.447C90.8898 190.436 90.8142 190.423 90.7368 190.412C90.7571 190.143 90.7368 189.918 90.6686 189.82C90.9672 189.547 91.2492 189.241 91.5164 188.934C91.6989 188.723 91.8721 188.508 92.0417 188.288C91.9919 188.583 91.9735 188.884 92.0067 189.077ZM94.1908 190.386C94.1723 190.421 94.1539 190.48 94.1355 190.552C94.0857 190.561 94.0378 190.572 93.988 190.579C94.0728 190.489 94.1539 190.395 94.2332 190.299C94.2184 190.329 94.2074 190.356 94.1926 190.386H94.1908ZM95.7537 189.763C95.7003 189.815 95.645 189.862 95.5878 189.907C95.7537 189.61 95.9122 189.311 96.0615 189.007C95.9638 189.26 95.8625 189.512 95.7537 189.761V189.763ZM96.4007 186.167C96.4412 185.966 96.4818 185.765 96.5186 185.563C96.5297 185.612 96.5407 185.662 96.5518 185.712C96.5039 185.865 96.4541 186.016 96.4025 186.167H96.4007ZM97.6687 177.116C97.8991 177.438 98.1147 177.768 98.323 178.103C98.1111 177.77 97.8917 177.442 97.6687 177.116ZM91.3063 200.344C90.5691 200.269 89.8318 200.197 89.0927 200.132C90.3626 200.143 91.6307 200.193 92.8988 200.28C92.3679 200.294 91.8371 200.315 91.3063 200.344ZM93.7079 203.758C95.2026 204.051 96.6974 204.34 98.1921 204.635C99.3386 204.86 100.485 205.083 101.633 205.308C98.9607 204.987 96.3103 204.469 93.7079 203.759V203.758ZM67.4068 193.254C67.5174 193.37 67.6261 193.486 67.733 193.604C66.8797 193.132 66.0484 192.622 65.2338 192.08C65.0642 191.766 64.8817 191.464 64.6937 191.169C65.6227 191.831 66.5276 192.526 67.4068 193.254ZM54.024 189.593C54.3742 189.803 54.7244 190.012 55.0783 190.218C55.0617 190.316 55.0488 190.412 55.0469 190.5C54.6802 190.255 54.3134 190.012 53.9448 189.77C53.9724 189.713 53.9982 189.654 54.024 189.593ZM46.6571 184.571C46.7696 184.635 46.8838 184.698 46.9963 184.763C47.0239 184.847 47.0682 184.917 47.1327 184.965C47.6579 185.358 48.1869 185.741 48.7214 186.119C48.7122 186.2 48.7067 186.276 48.7085 186.348L45.3596 184.162C45.7854 184.317 46.2185 184.453 46.6571 184.571ZM40.4735 181.543C39.8045 181.194 39.1207 180.876 38.4203 180.582C38.2342 180.367 38.0499 180.151 37.8637 179.936C38.7207 180.494 39.5907 181.03 40.4754 181.545L40.4735 181.543ZM32.233 176.188C32.3491 176.024 32.4597 175.822 32.5556 175.602C33.1048 176.133 33.6725 176.649 34.2549 177.149C34.2604 177.302 34.2936 177.42 34.3655 177.475C34.3931 177.497 34.4226 177.517 34.4521 177.538L34.4558 177.541C34.8373 177.829 35.2207 178.115 35.6077 178.393C35.3497 178.89 35.1636 179.624 35.3884 179.886C36.0372 180.64 36.6841 181.392 37.3329 182.145C37.3366 182.274 37.3513 182.379 37.3826 182.433C37.6775 182.96 38.0075 183.454 38.3632 183.922C36.1441 184.484 34.0595 185.478 32.198 186.891C31.5197 187.407 30.8931 187.975 30.2978 188.585C29.7633 189.133 29.5089 189.398 28.7182 189.098C28.3312 188.95 27.9349 188.572 27.5958 188.342C26.324 187.487 25.0504 186.631 23.7787 185.774C26.9304 182.894 29.7614 179.681 32.233 176.19V176.188ZM6.9991 131.674L5.52093 123.629C6.24342 126.263 6.92721 128.926 7.01568 131.644C7.01015 131.654 7.00462 131.665 6.9991 131.674ZM7.76767 108.174C7.70869 107.607 7.65524 107.039 7.59995 106.471C7.74002 106.433 7.88194 106.398 8.0257 106.368C7.92618 106.969 7.83955 107.57 7.76767 108.174ZM31.5179 47.2118C31.352 47.2874 31.1843 47.3519 31.011 47.4035C31.0405 47.3132 31.0792 47.2229 31.1272 47.1326C33.0274 44.8692 35.0603 42.722 37.2112 40.7001C35.3128 42.8713 33.4163 45.0425 31.5179 47.2118ZM35.7331 46.0212C35.2152 46.6128 34.6936 47.2045 34.1701 47.7906C33.8513 48.1463 32.8099 49.0255 32.4597 48.432C32.6477 48.2845 32.832 48.1316 33.0127 47.973C34.3692 46.7713 35.6188 45.4222 36.8611 44.1044C38.4351 42.4364 39.9556 40.7186 41.4246 38.9584C39.6773 41.4319 37.7089 43.7652 35.7331 46.0212ZM45.8112 30.952C45.7227 31.1879 45.6324 31.422 45.5365 31.6542C45.5089 31.5731 45.4665 31.5197 45.4057 31.5197C45.1734 31.5178 44.9467 31.5326 44.7219 31.5547C45.0813 31.3482 45.4444 31.1455 45.8093 30.952H45.8112ZM44.6611 33.5876C44.5837 33.7461 44.5081 33.9065 44.427 34.0631C44.3772 33.8843 44.2777 33.7424 44.0823 33.9489C43.863 34.1848 43.6437 34.4189 43.4243 34.6548C43.5405 34.0945 43.5423 33.5895 43.1884 33.8604C41.4246 35.2114 39.7271 36.638 38.0941 38.1327C39.7824 35.9413 41.784 33.6411 44.6592 33.5876H44.6611ZM101.486 33.1305C99.6703 28.3864 99.5708 23.0783 102.944 19.1506C101.025 23.5095 100.437 28.4785 101.486 33.1305ZM104.354 22.2783C104.219 22.9732 104.144 23.6773 104.132 24.3832C103.996 24.4053 103.873 24.5214 103.769 24.667C103.487 23.622 103.439 22.5437 103.736 21.5061C103.897 20.9439 104.186 20.4205 104.542 19.9321C104.413 20.7117 104.348 21.4969 104.352 22.2802L104.354 22.2783ZM108.674 16.2274C108.407 16.2274 108.141 16.2366 107.878 16.2588C107.822 16.2643 107.769 16.2698 107.715 16.2753C107.721 16.2588 107.727 16.2422 107.732 16.2238C108.01 15.986 108.329 15.7906 108.696 15.6542C108.921 15.5713 109.155 15.5068 109.395 15.457C109.14 15.6948 108.901 15.9528 108.676 16.2256L108.674 16.2274ZM115.02 25.3932C114.741 25.2992 114.472 25.1849 114.207 25.0633C114.271 24.9748 114.334 24.8771 114.397 24.7702C114.423 24.7241 114.443 24.6744 114.469 24.6265C114.837 24.7665 115.198 24.8937 115.541 25.0135C116.17 25.2347 116.901 25.4817 117.677 25.6881C116.802 25.8042 115.893 25.6881 115.022 25.3932H115.02ZM132.135 18.7838C132.089 19.0197 132.063 19.2409 132.068 19.4307C131.396 18.8115 130.612 18.2622 129.781 17.7351C130.553 18.0355 131.357 18.382 132.133 18.7838H132.135ZM127.591 16.2532C127.59 16.3251 127.591 16.3951 127.595 16.4615C127.457 16.3859 127.319 16.3085 127.18 16.2348C127.317 16.2403 127.455 16.2477 127.591 16.2532ZM122.097 22.4903C122.18 22.5401 122.265 22.588 122.348 22.6396C122.388 22.6654 122.427 22.6912 122.468 22.717C122.344 22.7465 122.219 22.7723 122.092 22.7944C122.095 22.693 122.097 22.5917 122.097 22.4903ZM121.076 26.1102C121.957 26.0493 122.787 25.8116 123.47 25.2918C123.878 24.9822 124.213 24.608 124.478 24.1915C124.482 24.1952 124.486 24.197 124.49 24.2007C124.633 24.3242 124.801 24.5195 124.958 24.6375C124.853 24.7518 124.751 24.8568 124.681 24.9121C123.61 25.7655 122.274 26.2336 120.857 26.4493C120.932 26.3387 121.006 26.2263 121.076 26.112V26.1102ZM119.591 22.6672C119.627 22.5603 119.661 22.4534 119.688 22.3447C119.803 22.47 119.906 22.599 120.002 22.7336C119.865 22.7133 119.729 22.6912 119.592 22.6672H119.591ZM129.698 29.6802C126.957 31.3114 123.465 32.2477 120.184 32.6532C120.582 31.8864 120.743 30.6442 120.573 30.2203C121.395 30.0433 122.21 29.8461 123.017 29.6489C124.292 29.3356 125.638 29.0186 126.65 28.1228C127.794 27.1091 128.371 25.4411 128.461 23.9482C128.57 22.1327 127.792 20.767 126.652 19.6538C127.702 20.2196 128.729 20.8333 129.717 21.5042C131.176 22.494 132.772 23.8136 132.776 25.7434C132.778 27.4925 131.069 28.8656 129.702 29.6784L129.698 29.6802ZM126.233 25.6107C126.465 25.1775 126.644 24.7297 126.746 24.2818C126.86 24.5638 126.902 24.8402 126.97 25.1296C126.945 25.148 126.913 25.1683 126.875 25.1868C126.705 25.2715 126.554 25.4282 126.388 25.5259C126.336 25.5554 126.285 25.583 126.231 25.6107H126.233ZM150.437 6.96952C150.363 7.24967 150.317 7.5372 150.306 7.78787C150.26 7.8321 150.214 7.88739 150.169 7.95006C149.817 7.80814 149.464 7.66991 149.108 7.53721C149.565 7.3787 150.009 7.18884 150.439 6.96767L150.437 6.96952ZM157.621 19.2759C156.379 20.4647 154.13 18.8225 153.141 18.0429C152.862 17.8236 152.488 17.5194 152.112 17.1637C150.461 15.9178 148.483 13.7632 149.937 12.3809C151.769 10.641 154.492 13.1439 155.796 14.3456C156.572 15.0607 157.582 15.9565 157.94 16.985C158.183 17.6835 158.198 18.723 157.621 19.2741V19.2759ZM175.096 28.7071C175.254 28.7108 175.413 28.7126 175.569 28.7145C175.538 28.9578 175.54 29.1752 175.584 29.3301C175.391 29.2434 175.197 29.1568 175.002 29.072C175.038 28.9522 175.072 28.8287 175.097 28.7071H175.096ZM171.216 33.7517C171.173 33.6042 171.151 33.4328 171.118 33.2669L171.387 33.2632C171.714 33.2982 172.021 33.4052 172.314 33.5489C172.206 33.7295 172.125 33.8991 172.106 33.9452C171.902 34.4465 171.682 35.2169 171.957 35.7348C172.477 36.7117 173.007 37.6959 173.573 38.6561C172.523 37.1761 171.715 35.521 171.216 33.7517ZM174.944 36.6822C174.85 36.4758 174.76 36.2656 174.675 36.0555C175.158 36.367 175.615 36.7154 176.043 37.095C176.821 38.1862 177.44 39.3657 177.888 40.6043C176.756 39.4339 175.803 38.0903 174.944 36.6822ZM181.032 43.7118C181.051 43.5809 181.062 43.4832 181.062 43.4371C181.06 43.2197 181.051 43.0022 181.038 42.7865C181.185 43.1496 181.316 43.5201 181.427 43.8979C181.318 43.8113 181.189 43.7468 181.034 43.7099L181.032 43.7118ZM187.033 38.7888C186.985 39.48 186.158 39.9039 185.627 39.3713C185.327 39.069 185.028 38.7649 184.742 38.446C184.355 38.2083 183.996 37.9244 183.683 37.6019C182.061 36.5126 180.505 34.8833 181.445 33.6171C181.523 33.254 181.889 32.9554 182.262 32.961C184.589 31.8735 187.798 35.6021 187.033 37.9613C187.035 38.0258 187.03 38.0885 187.017 38.1475C187.041 38.3594 187.048 38.5732 187.033 38.787V38.7888ZM199.952 50.9036C199.607 50.3543 199.259 49.8088 198.903 49.2669C199.292 49.7313 199.675 50.1995 200.059 50.6695C200.022 50.7451 199.985 50.8243 199.952 50.9054V50.9036ZM219.706 114.767C219.76 114.572 219.815 114.376 219.87 114.179C219.774 114.78 219.647 115.373 219.492 115.96C219.568 115.563 219.64 115.165 219.706 114.765V114.767ZM209.958 137.526C209.993 136.982 210.033 136.435 210.081 135.885C210.113 135.92 210.151 135.948 210.198 135.963C210.242 136.394 210.295 136.825 210.356 137.255C210.236 137.36 210.104 137.45 209.958 137.524V137.526ZM212.566 127.188C212.359 127.494 212.223 127.956 212.166 128.133C211.972 128.734 211.777 129.337 211.584 129.938C211.757 128.248 212.162 126.605 212.793 125.028C212.734 125.75 212.658 126.471 212.566 127.188ZM212.901 119.367C212.87 119.447 212.839 119.528 212.807 119.609C211.349 121.341 210.848 124.816 210.555 126.408C210.461 126.915 210.382 127.422 210.312 127.931C209.455 131.654 208.913 135.441 208.695 139.256C207.656 138.587 208.329 136.407 208.447 135.439C208.633 133.904 208.832 132.371 209.07 130.843C209.497 128.109 210.039 125.391 210.87 122.75C211.117 121.963 211.821 118.833 212.831 118.746C212.946 118.737 213.058 118.752 213.17 118.78C213.058 118.997 212.968 119.202 212.9 119.367H212.901ZM133.383 210.369C132.761 210.505 132.138 210.623 131.512 210.728C132.988 209.856 134.363 208.749 135.919 208.115C135.823 208.585 135.843 209.029 136.048 209.047C136.914 209.127 137.758 209.082 138.575 208.926C136.87 209.493 135.143 209.985 133.384 210.369H133.383ZM214.96 122.368C215.002 122.329 215.045 122.291 215.085 122.252C215.082 122.366 215.082 122.475 215.085 122.582C215.017 122.687 214.956 122.812 214.905 122.947C214.923 122.753 214.944 122.562 214.96 122.368ZM213.454 131.565C213.467 131.51 213.482 131.455 213.495 131.397C213.928 129.602 214.274 127.792 214.54 125.969C214.352 127.872 213.965 129.733 213.452 131.565H213.454ZM213.749 135.061C214.51 133.113 215.128 131.112 215.596 129.073C215.179 131.143 214.615 133.176 213.749 135.061ZM216.803 121.36C216.803 121.36 216.796 121.36 216.792 121.36C216.774 121.052 216.741 120.748 216.698 120.442C216.908 120.167 217.111 119.891 217.305 119.605C217.139 120.191 216.971 120.776 216.803 121.362V121.36ZM218.783 113.696C218.473 114.992 217.95 116.216 217.236 117.338C217.376 116.818 217.513 116.297 217.646 115.775C218.088 114.905 218.49 114.019 218.853 113.114C218.831 113.307 218.808 113.501 218.783 113.696Z" fill="#240057"/>
<path fill-rule="evenodd" clip-rule="evenodd" d="M104.838 6.34647C104.636 6.34831 104.435 6.35753 104.234 6.36859C104.708 6.41466 105.181 6.46627 105.649 6.52894C105.906 6.56395 106.099 6.68929 106.23 6.85886C106.61 6.82015 106.991 6.78514 107.371 6.74828C106.597 6.39071 105.671 6.33357 104.838 6.34463V6.34647Z" fill="#240057"/>
<path fill-rule="evenodd" clip-rule="evenodd" d="M210.725 72.3057C210.813 72.514 210.9 72.7241 210.986 72.9323C210.942 72.678 210.89 72.4236 210.833 72.1711C210.8 72.2172 210.761 72.2615 210.725 72.3057Z" fill="#240057"/>
<path fill-rule="evenodd" clip-rule="evenodd" d="M206.965 63.2358C206.74 62.9594 206.495 62.7216 206.224 62.5428C206.109 62.4691 206.039 62.4433 206.052 62.447C206.017 62.4341 205.897 62.4138 205.888 62.4101C205.831 62.4083 205.85 62.4193 205.842 62.4267C205.748 62.4967 205.676 62.5539 205.608 62.6313C205.897 62.8137 206.168 63.0386 206.419 63.2745C206.603 63.2321 206.786 63.2211 206.965 63.2358Z" fill="#240057"/>
<path fill-rule="evenodd" clip-rule="evenodd" d="M206.858 68.0555C206.769 67.6684 206.666 67.1818 206.508 66.7155C206.445 66.6547 206.38 66.5957 206.316 66.5367C206.502 67.2353 206.649 67.9449 206.802 68.6508C206.906 68.9014 207.013 69.1503 207.114 69.4009C207.042 68.9494 206.959 68.4996 206.856 68.0555H206.858Z" fill="#240057"/>
<path fill-rule="evenodd" clip-rule="evenodd" d="M150.748 201.349C149.657 202.589 148.205 203.337 146.551 203.465C145.893 203.514 145.61 205.556 145.958 205.529C147.783 205.389 149.386 204.613 150.601 203.236C150.923 202.869 151.108 202.348 151.135 201.861C151.146 201.679 151.076 200.976 150.748 201.349Z" fill="#240057"/>
</g>
</svg>
